<svg width="480" height="480" viewBox="0 0 480 480" fill="none" xmlns="http://www.w3.org/2000/svg">
<path fill-rule="evenodd" clip-rule="evenodd" d="M460.8 124.8C460.8 124.8 460.8 124.8 460.8 124.8C460.8 66.4787 413.521 19.2 355.2 19.2C296.879 19.2 249.6 66.4787 249.6 124.8V124.8C249.6 124.952 249.601 125.104 249.601 125.255V191.343C249.601 191.342 249.601 191.342 249.6 191.341L249.6 355.2C249.6 424.125 193.725 480 124.8 480C55.8749 480 0 424.125 0 355.2V0H19.2V288.659C19.2003 288.659 19.2006 288.658 19.201 288.658V354.747C19.2003 354.898 19.2 355.049 19.2 355.2C19.2 413.521 66.4787 460.8 124.8 460.8C183.121 460.8 230.4 413.521 230.4 355.2L230.401 355.2V124.355C230.641 55.6343 286.424 0 355.2 0C424.125 0 480 55.8749 480 124.8L480 124.8V480H460.801V124.8H460.8Z" fill="white"/>
</svg>
