<svg width="500" height="500" viewBox="0 0 500 500" fill="none" xmlns="http://www.w3.org/2000/svg">
<path fill-rule="evenodd" clip-rule="evenodd" d="M100 180C144.183 180 180 144.183 180 100C180 55.8172 144.183 20 100 20C55.8172 20 20 55.8172 20 100C20 144.183 55.8172 180 100 180ZM100 200C155.228 200 200 155.228 200 100C200 44.7715 155.228 0 100 0C44.7715 0 0 44.7715 0 100C0 155.228 44.7715 200 100 200Z" fill="white"/>
<path fill-rule="evenodd" clip-rule="evenodd" d="M100 480C144.183 480 180 444.183 180 400C180 355.817 144.183 320 100 320C55.8172 320 20 355.817 20 400C20 444.183 55.8172 480 100 480ZM100 500C155.228 500 200 455.228 200 400C200 344.772 155.228 300 100 300C44.7715 300 0 344.772 0 400C0 455.228 44.7715 500 100 500Z" fill="white"/>
<path fill-rule="evenodd" clip-rule="evenodd" d="M400 180C444.183 180 480 144.183 480 100C480 55.8172 444.183 20 400 20C355.817 20 320 55.8172 320 100C320 144.183 355.817 180 400 180ZM400 200C455.228 200 500 155.228 500 100C500 44.7715 455.228 0 400 0C344.772 0 300 44.7715 300 100C300 155.228 344.772 200 400 200Z" fill="white"/>
<path fill-rule="evenodd" clip-rule="evenodd" d="M400 480C444.183 480 480 444.183 480 400C480 355.817 444.183 320 400 320C355.817 320 320 355.817 320 400C320 444.183 355.817 480 400 480ZM400 500C455.228 500 500 455.228 500 400C500 344.772 455.228 300 400 300C344.772 300 300 344.772 300 400C300 455.228 344.772 500 400 500Z" fill="white"/>
</svg>
