<svg width="500" height="500" viewBox="0 0 500 500" fill="none" xmlns="http://www.w3.org/2000/svg">
<path d="M213.035 487.25V284.153H13.6187C4.53956 284.153 0 279.903 0 271.403V227.687C0 224.651 1.29701 221.919 3.89104 219.49C6.48508 216.454 9.72762 214.936 13.6187 214.936H213.035V12.7505C213.035 4.25015 217.575 0 226.654 0H273.346C276.589 0 279.507 1.21433 282.101 3.64299C285.344 6.07166 286.965 9.10748 286.965 12.7505V214.936H486.381C490.272 214.936 493.515 216.454 496.109 219.49C498.703 221.919 500 224.651 500 227.687V271.403C500 279.903 495.46 284.153 486.381 284.153H286.965V487.25C286.965 490.285 285.344 493.321 282.101 496.357C279.507 498.786 276.589 500 273.346 500H226.654C222.763 500 219.52 498.786 216.926 496.357C214.332 493.321 213.035 490.285 213.035 487.25Z" fill="white"/>
</svg>
