<svg width="499" height="500" viewBox="0 0 499 500" fill="none" xmlns="http://www.w3.org/2000/svg">
<path fill-rule="evenodd" clip-rule="evenodd" d="M89 500L89 8.74228e-07L109 0L109 500L89 500Z" fill="white"/>
<path fill-rule="evenodd" clip-rule="evenodd" d="M389 500L389 8.74228e-07L409 0L409 500L389 500Z" fill="white"/>
<path d="M100 70C155.228 70 200 114.772 200 170C200 225.228 155.228 270 100 270C44.7715 270 -1.95703e-06 225.228 -4.37114e-06 170C-6.78525e-06 114.772 44.7715 70 100 70Z" fill="black"/>
<path fill-rule="evenodd" clip-rule="evenodd" d="M180 170C180 125.817 144.183 90 100 90C55.8172 90 20 125.817 20 170C20 214.183 55.8172 250 100 250C144.183 250 180 214.183 180 170ZM200 170C200 114.772 155.228 70 100 70C44.7715 70 -6.78525e-06 114.772 -4.37114e-06 170C-1.95703e-06 225.228 44.7715 270 100 270C155.228 270 200 225.228 200 170Z" fill="white"/>
<path d="M399 230C454.228 230 499 274.772 499 330C499 385.228 454.228 430 399 430C343.772 430 299 385.228 299 330C299 274.772 343.772 230 399 230Z" fill="black"/>
<path fill-rule="evenodd" clip-rule="evenodd" d="M479 330C479 285.817 443.183 250 399 250C354.817 250 319 285.817 319 330C319 374.183 354.817 410 399 410C443.183 410 479 374.183 479 330ZM499 330C499 274.772 454.228 230 399 230C343.772 230 299 274.772 299 330C299 385.228 343.772 430 399 430C454.228 430 499 385.228 499 330Z" fill="white"/>
</svg>
